inDegrees=yes
name=ik_S50_A01_T03
DataType=double
version=3
OpenSimVersion=4.3-2021-08-27-4bc7ad9
endheader
time	pelvis_tilt	pelvis_list	pelvis_rotation	pelvis_tx	pelvis_ty	pelvis_tz	hip_flexion_r	hip_adduction_r	hip_rotation_r	knee_angle_r	knee_angle_r_beta	ankle_angle_r	subtalar_angle_r	mtp_angle_r	hip_flexion_l	hip_adduction_l	hip_rotation_l	knee_angle_l	knee_angle_l_beta	ankle_angle_l	subtalar_angle_l	mtp_angle_l	lumbar_extension	lumbar_bending	lumbar_rotation	arm_flex_r	arm_add_r	arm_rot_r	elbow_flex_r	pro_sup_r	wrist_flex_r	wrist_dev_r	arm_flex_l	arm_add_l	arm_rot_l	elbow_flex_l	pro_sup_l	wrist_flex_l	wrist_dev_l
19.21999999999968	-1.243165633191962	1.577080142146342	92.70700458090342	0	0.9399999999999999	0	-7.452997406656288	-5.363295524613259	-5.472768022776883	2.876039208466098	0.05019635360418499	0	0	0	-2.438538430487367	0.312341558121389	0.006483070724067706	5.630106547955445	0.09826389649991453	0	0	0	0	0	0	41.12639933331438	-41.12639933331438	4.927166547460978	83.9804337735404	85.07283372394093	0	0	41.12639933331438	-41.12639933331438	4.927166547460978	83.9804337735404	85.0728337239273	0	0
19.23999999999968	-1.191655003349038	1.586604530485219	92.61584125791855	0	0.9399999999999999	0	-6.472138816318453	-5.374524188111239	-6.498142076886605	5.032954304333312	0.08784162371303701	0	0	0	-2.436327659035469	0.2820273775017081	-0.07303067973969106	5.982287802309658	0.1044106189521992	0	0	0	0	0	0	41.12823466333779	-41.12823466333779	4.92723593681215	83.98140523886337	85.07276433459275	0	0	41.12823466333779	-41.12823466333779	4.92723593681215	83.98140523886337	85.07276433457915	0	0
19.25999999999968	-1.056806730488033	1.573725387453328	92.37871222750427	0	0.9399999999999999	0	-5.154048806701867	-5.400880334775779	-7.267223734614796	7.588841965013645	0.1324502787030044	0	0	0	-2.405068654382076	0.155721725371544	-0.2383428583648717	6.655136558983735	0.116154045124112	0	0	0	0	0	0	41.13024568269972	-41.13024568269972	4.927311907931067	83.98246884983965	85.0726883634771	0	0	41.13024568269972	-41.13024568269972	4.927311907931067	83.98246884983965	85.0726883634635	0	0
19.27999999999968	-0.9079130903716375	1.587361566395793	92.03797728042025	0	0.9399999999999999	0	-3.760999626005612	-5.525019168616783	-7.360756977651794	10.27514583416101	0.1793351259286889	0	0	0	-2.408041796374448	-0.006369144195744735	-0.5553882357255874	6.924989696560917	0.120863870871671	0	0	0	0	0	0	41.13202100549552	-41.13202100549552	4.927378834271086	83.98340583127083	85.07262143713993	0	0	41.13202100549552	-41.13202100549552	4.927378834271086	83.98340583127083	85.07262143712633	0	0
19.29999999999968	-0.9282499593695001	1.540838808909998	92.01774603706031	0	0.9399999999999999	0	-2.253855528894449	-5.808222211299491	-7.223755551993196	13.08617430431823	0.2283968281002316	0	0	0	-2.360210862037682	0.02470215032176165	-0.5695627436852809	7.161030154920022	0.124983554037954	0	0	0	0	0	0	41.13333456751904	-41.13333456751904	4.927428036440549	83.98409466940822	85.07257223497258	0	0	41.13333456751904	-41.13333456751904	4.927428036440549	83.98409466940822	85.07257223495898	0	0
19.31999999999968	-0.7482031150081649	1.621405837636163	91.62687448066522	0	0.9399999999999999	0	-0.873016158009557	-6.02161154239772	-7.097713452323547	16.11242643880597	0.2812148918425487	0	0	0	-2.436709126902162	-0.1426030578656864	-0.9515294801428614	7.449212921711856	0.1300132921659785	0	0	0	0	0	0	41.13507988366353	-41.13507988366353	4.927493715894372	83.9850141934197	85.0725065555216	0	0	41.13507988366353	-41.13507988366353	4.927493715894372	83.9850141934197	85.072506555508	0	0
19.33999999999968	-0.5595384836387948	1.641667373086426	90.94543264965074	0	0.9399999999999999	0	0.805455533144073	-5.989530502089518	-6.570624687332989	19.42974744911399	0.3391130658180085	0	0	0	-2.458098275169299	-0.2939893477138474	-1.604518197188326	7.706996955749274	0.1345124723190045	0	0	0	0	0	0	41.13704443897565	-41.13704443897565	4.927567634526034	83.98604906715849	85.07243263689314	0	0	41.13704443897565	-41.13704443897565	4.927567634526034	83.98604906715849	85.07243263687954	0	0
19.35999999999968	-0.5410867176867707	1.602920390403395	90.50424183633125	0	0.9399999999999999	0	2.761341366403641	-5.584123986603282	-5.906454327618972	22.94208034762637	0.4004148393231654	0	0	0	-2.415017264197783	-0.2870672964981644	-2.037293032087193	7.954283575191534	0.1388284380243982	0	0	0	0	0	0	41.13860236819242	-41.13860236819242	4.927626012784913	83.98686637175567	85.07237425863684	0	0	41.13860236819242	-41.13860236819242	4.927626012784913	83.98686637175567	85.07237425862324	0	0
19.37999999999968	-0.6140037507910782	1.579780490971144	90.12635994755628	0	0.9399999999999999	0	5.050102566128456	-4.855465143715314	-4.725280482511096	26.93639088993703	0.4701287096336067	0	0	0	-2.393522977270861	-0.1795938929834417	-2.391511201717812	8.206175169295527	0.14322477569961	0	0	0	0	0	0	41.17908249284577	-41.17908249284577	4.928913596791739	84.0048917002245	85.07108667468412	0	0	41.17908249284577	-41.17908249284577	4.928913596791739	84.0048917002245	85.07108667467078	0	0
19.39999999999968	-0.609084698574539	1.597299117381237	90.10264917244595	0	0.9399999999999999	0	7.484179860314089	-4.044777670956019	-3.714310661763897	31.19476652793568	0.5444513853033973	0	0	0	-2.384815525731837	-0.1635231850843667	-2.416047977065978	8.540956303262606	0.1490678087608958	0	0	0	0	0	0	41.215077668375	-41.215077668375	4.930054610503015	84.02086512120852	85.06994566102082	0	0	41.215077668375	-41.215077668375	4.930054610503015	84.02086512120852	85.06994566100768	0	0
19.41999999999967	-0.7360687423239894	1.632777333270693	89.83558634835067	0	0.9399999999999999	0	9.836134988802849	-3.800068668775855	-2.828629638699278	34.99170885103816	0.610720530349858	0	0	0	-2.445178353917668	-0.02265108498508101	-2.669015333785293	8.620091731400985	0.1504489825368859	0	0	0	0	0	0	41.24858506576453	-41.24858506576453	4.931108893456026	84.03562432811022	85.06889137811199	0	0	41.24858506576453	-41.24858506576453	4.931108893456026	84.03562432811022	85.06889137809912	0	0
19.43999999999967	-0.8029598260331146	1.818230145979348	89.47281499786376	0	0.9399999999999999	0	11.717694841147	-3.625740599547653	-2.279179880051116	37.45315745196962	0.6536809128047198	0	0	0	-2.630079085334323	0.0613904028323366	-3.037454643737916	8.633711555781581	0.1506866933158706	0	0	0	0	0	0	41.27029837867578	-41.27029837867578	4.931790931127403	84.04517236144861	85.06820934046922	0	0	41.27029837867578	-41.27029837867578	4.931790931127403	84.04517236144861	85.06820934045646	0	0
19.45999999999967	-0.7523055039404974	1.874373417327951	89.46998532894227	0	0.9399999999999999	0	13.2347616162328	-3.580347069756005	-2.860849694425462	39.39093187303841	0.6875014566132972	0	0	0	-2.695890484287259	0.01559236230930433	-3.055457416979788	8.82826253506466	0.1540822484673396	0	0	0	0	0	0	41.2715919483923	-41.2715919483923	4.931838457438512	84.045837727755	85.06816181416016	0	0	41.2715919483923	-41.2715919483923	4.931838457438512	84.045837727755	85.06816181414749	0	0
19.47999999999967	-0.6699447951675819	1.896398056188129	89.52580549981532	0	0.9399999999999999	0	13.13371688519728	-3.684404306155342	-3.296907310459789	39.02312745604097	0.6810820585333136	0	0	0	-2.714369330867788	-0.07844314548002944	-3.021891625484772	9.062979892008306	0.158178839157585	0	0	0	0	0	0	41.27232317598518	-41.27232317598518	4.93186537665753	84.04621459587324	85.06813489494232	0	0	41.27232317598518	-41.27232317598518	4.93186537665753	84.04621459587324	85.06813489492964	0	0
19.49999999999967	-0.6721535889534721	1.899997452594137	89.5115641369447	0	0.9399999999999999	0	14.51376264690106	-3.455041134364412	-3.80964633192551	40.31932755966426	0.7037050181062318	0	0	0	-2.7442288998428	-0.069921513753243	-3.050671968330409	9.345482007845225	0.1631094312227897	0	0	0	0	0	0	41.27375965077429	-41.27375965077429	4.931918167842787	84.04695367013771	85.06808210375932	0	0	41.27375965077429	-41.27375965077429	4.931918167842787	84.04695367013771	85.06808210374668	0	0
19.51999999999967	-0.3516265711652787	1.907338590648424	89.66093316110522	0	0.9399999999999999	0	14.3968276150908	-3.479232510699061	-4.539711654472827	39.01905077791568	0.6810109070774834	0	0	0	-2.756503104779319	-0.4039860630167904	-2.929649213488046	9.654734298713503	0.1685069019177764	0	0	0	0	0	0	41.27460214286227	-41.27460214286227	4.93194908815482	84.0473865529588	85.06805118344859	0	0	41.27460214286227	-41.27460214286227	4.93194908815482	84.0473865529588	85.06805118343594	0	0
19.53999999999967	-0.242709640418397	1.907632951994301	89.58590032159285	0	0.9399999999999999	0	16.55486197202449	-2.821046444470075	-6.056791799530822	36.68029545162281	0.6401919262351184	0	0	0	-2.787440009646936	-0.5206544107983667	-3.053032253366092	9.916212506649876	0.1730705575684804	0	0	0	0	0	0	41.28944653960064	-41.28944653960064	4.932413233985699	84.05388424818261	85.06758703763714	0	0	41.28944653960064	-41.28944653960064	4.932413233985699	84.05388424818261	85.06758703762459	0	0
19.55999999999967	-0.2321925245736672	1.914763913138237	89.5710124200701	0	0.9399999999999999	0	17.93881217047679	-2.652784314214802	-6.860261481446111	34.97362961576331	0.6104049881680691	0	0	0	-2.81881427375245	-0.5527906602544878	-3.116929011908647	10.20150234083351	0.1780498044974536	0	0	0	0	0	0	41.30047750078186	-41.30047750078186	4.932757775695061	84.05870757237905	85.06724249594218	0	0	41.30047750078186	-41.30047750078186	4.932757775695061	84.05870757237905	85.0672424959297	0	0
19.57999999999967	-0.2595405129465047	1.910508295189149	89.61258443472356	0	0.9399999999999999	0	18.2921325072795	-2.439424109136165	-7.131425436097832	31.72413748313716	0.5536906514360905	0	0	0	-2.798639577508927	-0.5446512722668418	-3.127534877656052	10.6909268487933	0.1865918736013051	0	0	0	0	0	0	41.30171680305866	-41.30171680305866	4.932802741370942	84.05933708649057	85.0671975302683	0	0	41.30171680305866	-41.30171680305866	4.932802741370942	84.05933708649057	85.06719753025581	0	0
19.59999999999967	-0.2623026097326889	1.941269970063558	89.60584486577692	0	0.9399999999999999	0	18.44346256523355	-1.92826693633038	-7.067507742807761	27.82632650482413	0.4856610162441469	0	0	0	-2.863051558429751	-0.5596105354415928	-3.17505740488942	11.10197488515152	0.1937660152196134	0	0	0	0	0	0	41.30323656868732	-41.30323656868732	4.932857861707813	84.0601087644785	85.06714240993387	0	0	41.30323656868732	-41.30323656868732	4.932857861707813	84.0601087644785	85.0671424099214	0	0
